<svg width="82" height="82" viewBox="0 0 82 82" fill="none" xmlns="http://www.w3.org/2000/svg">
<g clip-path="url(#clip0_53375_72)">
<path d="M41.3714 0.407059C19.0807 0.407059 0.948242 18.5413 0.948242 40.8303C0.948242 63.1192 19.0807 81.2534 41.3714 81.2534C63.6621 81.2534 81.7946 63.1192 81.7946 40.8303C81.7946 18.5413 63.6621 0.407059 41.3714 0.407059ZM41.3714 77.8849C20.9394 77.8849 4.31679 61.2623 4.31679 40.8303C4.31679 20.3982 20.9394 3.77561 41.3714 3.77561C61.8035 3.77561 78.4261 20.3982 78.4261 40.8303C78.4261 61.2623 61.8035 77.8849 41.3714 77.8849Z" fill="white"/>
<path d="M57.4419 39.414L33.8617 24.2553C33.3452 23.9182 32.6775 23.9 32.1445 24.1928C31.6017 24.4889 31.2661 25.0548 31.2661 25.6716V55.989C31.2661 56.6057 31.6017 57.1717 32.1445 57.4677C32.3945 57.6043 32.6741 57.6733 32.9505 57.6733C33.2663 57.6733 33.5854 57.5844 33.8617 57.4052L57.4419 42.2465C57.9222 41.9373 58.215 41.4027 58.215 40.8303C58.215 40.2579 57.9222 39.7234 57.4419 39.414ZM34.6347 52.9032V28.7573L53.4153 40.8303L34.6347 52.9032Z" fill="white"/>
</g>
<defs>
<clipPath id="clip0_53375_72">
<rect width="80.8464" height="80.8464" fill="white" transform="translate(0.948242 0.407059)"/>
</clipPath>
</defs>
</svg>
